<svg width="106" height="106" viewBox="0 0 106 106" fill="none" xmlns="http://www.w3.org/2000/svg">
<path fill-rule="evenodd" clip-rule="evenodd" d="M0 53C0 23.7289 23.7289 0 53 0C82.2711 0 106 23.7289 106 53C106 82.2711 82.2711 106 53 106C23.7289 106 0 82.2711 0 53ZM61.8333 24.25C61.8333 29.9008 57.2342 34.5 51.5833 34.5C45.9325 34.5 41.3333 29.9008 41.3333 24.25C41.3333 18.5992 45.9325 14 51.5833 14C57.2342 14 61.8333 18.5992 61.8333 24.25ZM58.5034 35.9948L85.2896 48.0599C87.5825 49.0916 89.0679 51.3645 89.1667 53.999C89.1887 54.6096 89.1353 55.2055 89.0139 55.7774C85.1748 53.1529 80.5322 51.6174 75.5307 51.6174C62.3398 51.6174 51.6434 62.2958 51.614 75.48H51.59C47.7122 75.48 43.8318 74.5237 40.299 72.6105L17.4701 60.2585C15.2319 59.0493 13.9112 56.6536 14.0067 53.999C14.1021 51.3645 15.5882 49.0916 17.8771 48.0599L44.6632 36.0015C45.8044 35.4856 46.9775 35.1133 48.1667 34.8604V55H55V34.8537C56.1892 35.1066 57.3623 35.479 58.5034 35.9948ZM31.0833 55C31.0833 56.8858 33.3796 58.4167 36.2083 58.4167C39.0371 58.4167 41.3333 56.8858 41.3333 55C41.3333 53.1142 39.0371 51.5833 36.2083 51.5833C33.3796 51.5833 31.0833 53.1142 31.0833 55ZM15.8685 67.1452C21.3558 70.1174 37.0425 78.6231 37.0425 78.6231C41.5082 81.0387 46.5337 82.3133 51.5833 82.3133C51.917 82.3133 52.2506 82.308 52.5836 82.2966C53.281 84.6663 54.3354 86.8838 55.6847 88.8851C54.324 89.0859 52.954 89.1867 51.5833 89.1867C47.2611 89.1867 42.9456 88.1891 38.9243 86.1971L16.7694 75.2331C15.071 74.3923 14 72.6612 14 70.7687V68.2663C14 67.5436 14.5706 67.0164 15.2145 66.9917C15.4294 66.9837 15.6569 67.0297 15.8685 67.1452ZM63.4569 63.4636C66.6567 60.2631 71.0016 58.4714 75.5274 58.4847C80.0498 58.4821 84.388 60.2771 87.5871 63.4743C90.7862 66.6707 92.5833 71.0083 92.5833 75.5307C92.5833 84.9639 84.9606 92.5833 75.5307 92.5833C66.1008 92.5833 58.4781 84.9639 58.4781 75.534C58.4647 71.0083 60.2565 66.664 63.4569 63.4636ZM80.3861 75.5274L85.2168 70.696L80.3861 65.8653L75.5547 70.696L70.7233 65.8653L65.8926 70.696L70.7233 75.5274L65.8926 80.3587L70.7233 85.1895L75.5547 80.3587L80.3861 85.1895L85.2168 80.3587L80.3861 75.5274Z" fill="#BCBCBC"/>
</svg>
