<svg width="106" height="106" viewBox="0 0 106 106" fill="none" xmlns="http://www.w3.org/2000/svg">
<path fill-rule="evenodd" clip-rule="evenodd" d="M53 0C23.7289 0 0 23.7289 0 53C0 82.2711 23.7289 106 53 106C82.2711 106 106 82.2711 106 53C106 23.7289 82.2711 0 53 0ZM71.3526 21.1026L83.8974 33.6474C85.2437 34.9937 86 36.8196 86 38.7234V78.8214C86 82.7861 82.7861 86 78.8214 86H26.1786C22.2139 86 19 82.7861 19 78.8214V26.1786C19 22.2139 22.2139 19 26.1786 19H66.2766C68.1805 19 70.0063 19.7563 71.3526 21.1026ZM42.9286 66.8571C42.9286 72.1433 47.2139 76.4286 52.5 76.4286C57.7861 76.4286 62.0714 72.1433 62.0714 66.8571C62.0714 61.571 57.7861 57.2857 52.5 57.2857C47.2139 57.2857 42.9286 61.571 42.9286 66.8571ZM66.8571 45.9196V30.8865C66.8572 30.6508 66.8108 30.4175 66.7206 30.1997C66.6304 29.982 66.4981 29.7842 66.3315 29.6176L65.811 29.0971C65.4745 28.7605 65.0181 28.5714 64.5421 28.5714H30.3661C29.375 28.5714 28.5714 29.375 28.5714 30.3661V45.9196C28.5714 46.9107 29.375 47.7143 30.3661 47.7143H65.0625C66.0536 47.7143 66.8571 46.9107 66.8571 45.9196Z" fill="#BCBCBC"/>
</svg>
