<svg width="106" height="106" viewBox="0 0 106 106" fill="none" xmlns="http://www.w3.org/2000/svg">
<path d="M53 0C23.7218 0 0 23.7218 0 53C0 82.2782 23.7218 106 53 106C82.2782 106 106 82.2782 106 53C106 23.7218 82.2782 0 53 0ZM78.9871 66.9125C79.9915 67.9169 79.9915 69.5411 78.9871 70.5456L70.5242 78.9871C69.5198 79.9915 67.8956 79.9915 66.8911 78.9871L53 64.9677L39.0875 78.9871C38.0831 79.9915 36.4589 79.9915 35.4544 78.9871L27.0129 70.5242C26.0085 69.5198 26.0085 67.8956 27.0129 66.8911L41.0323 53L27.0129 39.0875C26.0085 38.0831 26.0085 36.4589 27.0129 35.4544L35.4758 26.9915C36.4802 25.9871 38.1044 25.9871 39.1089 26.9915L53 41.0323L66.9125 27.0129C67.9169 26.0085 69.5411 26.0085 70.5456 27.0129L79.0085 35.4758C80.0129 36.4802 80.0129 38.1044 79.0085 39.1089L64.9677 53L78.9871 66.9125Z" fill="#BCBCBC"/>
</svg>
